{"asset":{"version":"2.0","generator":"Blockbench 5.2.1 glTF exporter"},"scenes":[{"nodes":[0,1,2,3,4,5,6,7,8,9,10,11,12],"name":"blockbench_export"}],"scene":0,"nodes":[{"translation":[-23,19,0],"name":"Concentrate bottle","mesh":0},{"translation":[-23,43,0],"name":"Bottle cap","mesh":1},{"translation":[-23,21,11],"name":"Bottle label","mesh":2},{"translation":[14,23,0],"name":"Transparent kit case","mesh":3},{"translation":[14,47,0],"name":"Case lid","mesh":4},{"rotation":[0,0,0.14943784035974159,0.9887711220846898],"translation":[5,30,0],"name":"Jelly cube 1","mesh":5},{"rotation":[0,0,0.14943784035974159,0.9887711220846898],"translation":[22,30,0],"name":"Jelly cube 2","mesh":6},{"rotation":[0,0,0.14943784035974159,0.9887711220846898],"translation":[22,15.6875,0],"name":"Jelly cube 3","mesh":7},{"translation":[3,9,2],"name":"Sugar pearl 1","mesh":8},{"translation":[13,9,2],"name":"Sugar pearl 2","mesh":9},{"translation":[23,9,2],"name":"Sugar pearl 3","mesh":10},{"translation":[3,18,2],"name":"Sugar pearl 4","mesh":11},{"translation":[13,18,2],"name":"Sugar pearl 5","mesh":12}],"bufferViews":[{"buffer":0,"byteOffset":0,"byteLength":1152,"target":34962,"byteStride":12},{"buffer":0,"byteOffset":1152,"byteLength":1152,"target":34962,"byteStride":12},{"buffer":0,"byteOffset":2304,"byteLength":768,"target":34962,"byteStride":8},{"buffer":0,"byteOffset":3072,"byteLength":192,"target":34963},{"buffer":0,"byteOffset":3264,"byteLength":1152,"target":34962,"byteStride":12},{"buffer":0,"byteOffset":4416,"byteLength":1152,"target":34962,"byteStride":12},{"buffer":0,"byteOffset":5568,"byteLength":768,"target":34962,"byteStride":8},{"buffer":0,"byteOffset":6336,"byteLength":192,"target":34963},{"buffer":0,"byteOffset":6528,"byteLength":432,"target":34962,"byteStride":12},{"buffer":0,"byteOffset":6960,"byteLength":432,"target":34962,"byteStride":12},{"buffer":0,"byteOffset":7392,"byteLength":288,"target":34962,"byteStride":8},{"buffer":0,"byteOffset":7680,"byteLength":72,"target":34963},{"buffer":0,"byteOffset":7752,"byteLength":432,"target":34962,"byteStride":12},{"buffer":0,"byteOffset":8184,"byteLength":432,"target":34962,"byteStride":12},{"buffer":0,"byteOffset":8616,"byteLength":288,"target":34962,"byteStride":8},{"buffer":0,"byteOffset":8904,"byteLength":72,"target":34963},{"buffer":0,"byteOffset":8976,"byteLength":432,"target":34962,"byteStride":12},{"buffer":0,"byteOffset":9408,"byteLength":432,"target":34962,"byteStride":12},{"buffer":0,"byteOffset":9840,"byteLength":288,"target":34962,"byteStride":8},{"buffer":0,"byteOffset":10128,"byteLength":72,"target":34963},{"buffer":0,"byteOffset":10200,"byteLength":432,"target":34962,"byteStride":12},{"buffer":0,"byteOffset":10632,"byteLength":432,"target":34962,"byteStride":12},{"buffer":0,"byteOffset":11064,"byteLength":288,"target":34962,"byteStride":8},{"buffer":0,"byteOffset":11352,"byteLength":72,"target":34963},{"buffer":0,"byteOffset":11424,"byteLength":432,"target":34962,"byteStride":12},{"buffer":0,"byteOffset":11856,"byteLength":432,"target":34962,"byteStride":12},{"buffer":0,"byteOffset":12288,"byteLength":288,"target":34962,"byteStride":8},{"buffer":0,"byteOffset":12576,"byteLength":72,"target":34963},{"buffer":0,"byteOffset":12648,"byteLength":432,"target":34962,"byteStride":12},{"buffer":0,"byteOffset":13080,"byteLength":432,"target":34962,"byteStride":12},{"buffer":0,"byteOffset":13512,"byteLength":288,"target":34962,"byteStride":8},{"buffer":0,"byteOffset":13800,"byteLength":72,"target":34963},{"buffer":0,"byteOffset":13872,"byteLength":720,"target":34962,"byteStride":12},{"buffer":0,"byteOffset":14592,"byteLength":720,"target":34962,"byteStride":12},{"buffer":0,"byteOffset":15312,"byteLength":480,"target":34962,"byteStride":8},{"buffer":0,"byteOffset":15792,"byteLength":120,"target":34963},{"buffer":0,"byteOffset":15912,"byteLength":720,"target":34962,"byteStride":12},{"buffer":0,"byteOffset":16632,"byteLength":720,"target":34962,"byteStride":12},{"buffer":0,"byteOffset":17352,"byteLength":480,"target":34962,"byteStride":8},{"buffer":0,"byteOffset":17832,"byteLength":120,"target":34963},{"buffer":0,"byteOffset":17952,"byteLength":720,"target":34962,"byteStride":12},{"buffer":0,"byteOffset":18672,"byteLength":720,"target":34962,"byteStride":12},{"buffer":0,"byteOffset":19392,"byteLength":480,"target":34962,"byteStride":8},{"buffer":0,"byteOffset":19872,"byteLength":120,"target":34963},{"buffer":0,"byteOffset":19992,"byteLength":720,"target":34962,"byteStride":12},{"buffer":0,"byteOffset":20712,"byteLength":720,"target":34962,"byteStride":12},{"buffer":0,"byteOffset":21432,"byteLength":480,"target":34962,"byteStride":8},{"buffer":0,"byteOffset":21912,"byteLength":120,"target":34963},{"buffer":0,"byteOffset":22032,"byteLength":720,"target":34962,"byteStride":12},{"buffer":0,"byteOffset":22752,"byteLength":720,"target":34962,"byteStride":12},{"buffer":0,"byteOffset":23472,"byteLength":480,"target":34962,"byteStride":8},{"buffer":0,"byteOffset":23952,"byteLength":120,"target":34963}],"buffers":[{"byteLength":24072,"uri":"data:application/octet-stream;base64,"}],"accessors":[{"bufferView":0,"componentType":5126,"count":96,"max":[11,18.5,11],"min":[-11,-18.5,-11],"type":"VEC3"},{"bufferView":1,"componentType":5126,"count":96,"max":[0.9238795042037964,1,0.9238795042037964],"min":[-0.9238795042037964,-1,-0.9238795042037964],"type":"VEC3"},{"bufferView":2,"componentType":5126,"count":96,"max":[1,1],"min":[0,0],"type":"VEC2"},{"bufferView":3,"componentType":5123,"count":96,"max":[95],"min":[0],"type":"SCALAR"},{"bufferView":4,"componentType":5126,"count":96,"max":[5.6875,5,5.5],"min":[-5.6875,-5,-5.5],"type":"VEC3"},{"bufferView":5,"componentType":5126,"count":96,"max":[0.9176768660545349,1,0.9268077611923218],"min":[-0.9176768660545349,-1,-0.9268077611923218],"type":"VEC3"},{"bufferView":6,"componentType":5126,"count":96,"max":[1,1],"min":[0,0],"type":"VEC2"},{"bufferView":7,"componentType":5123,"count":96,"max":[95],"min":[0],"type":"SCALAR"},{"bufferView":8,"componentType":5126,"count":36,"max":[5,9,0.5],"min":[-5,-9,-0.5],"type":"VEC3"},{"bufferView":9,"componentType":5126,"count":36,"max":[1,1,1],"min":[-1,-1,-1],"type":"VEC3"},{"bufferView":10,"componentType":5126,"count":36,"max":[1,1],"min":[0,0],"type":"VEC2"},{"bufferView":11,"componentType":5123,"count":36,"max":[35],"min":[0],"type":"SCALAR"},{"bufferView":12,"componentType":5126,"count":36,"max":[15.5,22,4],"min":[-15.5,-22,-4],"type":"VEC3"},{"bufferView":13,"componentType":5126,"count":36,"max":[1,1,1],"min":[-1,-1,-1],"type":"VEC3"},{"bufferView":14,"componentType":5126,"count":36,"max":[1,1],"min":[0,0],"type":"VEC2"},{"bufferView":15,"componentType":5123,"count":36,"max":[35],"min":[0],"type":"SCALAR"},{"bufferView":16,"componentType":5126,"count":36,"max":[17,2,5],"min":[-17,-2,-5],"type":"VEC3"},{"bufferView":17,"componentType":5126,"count":36,"max":[1,1,1],"min":[-1,-1,-1],"type":"VEC3"},{"bufferView":18,"componentType":5126,"count":36,"max":[1,1],"min":[0,0],"type":"VEC2"},{"bufferView":19,"componentType":5123,"count":36,"max":[35],"min":[0],"type":"SCALAR"},{"bufferView":20,"componentType":5126,"count":36,"max":[5,5,2.5],"min":[-5,-5,-2.5],"type":"VEC3"},{"bufferView":21,"componentType":5126,"count":36,"max":[1,1,1],"min":[-1,-1,-1],"type":"VEC3"},{"bufferView":22,"componentType":5126,"count":36,"max":[1,1],"min":[0,0],"type":"VEC2"},{"bufferView":23,"componentType":5123,"count":36,"max":[35],"min":[0],"type":"SCALAR"},{"bufferView":24,"componentType":5126,"count":36,"max":[5,5,2.5],"min":[-5,-5,-2.5],"type":"VEC3"},{"bufferView":25,"componentType":5126,"count":36,"max":[1,1,1],"min":[-1,-1,-1],"type":"VEC3"},{"bufferView":26,"componentType":5126,"count":36,"max":[1,1],"min":[0,0],"type":"VEC2"},{"bufferView":27,"componentType":5123,"count":36,"max":[35],"min":[0],"type":"SCALAR"},{"bufferView":28,"componentType":5126,"count":36,"max":[5,5,2.5],"min":[-5,-5,-2.5],"type":"VEC3"},{"bufferView":29,"componentType":5126,"count":36,"max":[1,1,1],"min":[-1,-1,-1],"type":"VEC3"},{"bufferView":30,"componentType":5126,"count":36,"max":[1,1],"min":[0,0],"type":"VEC2"},{"bufferView":31,"componentType":5123,"count":36,"max":[35],"min":[0],"type":"SCALAR"},{"bufferView":32,"componentType":5126,"count":60,"max":[2.551952362060547,2.551952362060547,2.551952362060547],"min":[-2.551952362060547,-2.551952362060547,-2.551952362060547],"type":"VEC3"},{"bufferView":33,"componentType":5126,"count":60,"max":[0.9341723918914795,0.9341723918914795,0.9341723918914795],"min":[-0.9341723918914795,-0.9341723918914795,-0.9341723918914795],"type":"VEC3"},{"bufferView":34,"componentType":5126,"count":60,"max":[1,1],"min":[0,0],"type":"VEC2"},{"bufferView":35,"componentType":5123,"count":60,"max":[59],"min":[0],"type":"SCALAR"},{"bufferView":36,"componentType":5126,"count":60,"max":[2.551952362060547,2.551952362060547,2.551952362060547],"min":[-2.551952362060547,-2.551952362060547,-2.551952362060547],"type":"VEC3"},{"bufferView":37,"componentType":5126,"count":60,"max":[0.9341723918914795,0.9341723918914795,0.9341723918914795],"min":[-0.9341723918914795,-0.9341723918914795,-0.9341723918914795],"type":"VEC3"},{"bufferView":38,"componentType":5126,"count":60,"max":[1,1],"min":[0,0],"type":"VEC2"},{"bufferView":39,"componentType":5123,"count":60,"max":[59],"min":[0],"type":"SCALAR"},{"bufferView":40,"componentType":5126,"count":60,"max":[2.551952362060547,2.551952362060547,2.551952362060547],"min":[-2.551952362060547,-2.551952362060547,-2.551952362060547],"type":"VEC3"},{"bufferView":41,"componentType":5126,"count":60,"max":[0.9341723918914795,0.9341723918914795,0.9341723918914795],"min":[-0.9341723918914795,-0.9341723918914795,-0.9341723918914795],"type":"VEC3"},{"bufferView":42,"componentType":5126,"count":60,"max":[1,1],"min":[0,0],"type":"VEC2"},{"bufferView":43,"componentType":5123,"count":60,"max":[59],"min":[0],"type":"SCALAR"},{"bufferView":44,"componentType":5126,"count":60,"max":[2.551952362060547,2.551952362060547,2.551952362060547],"min":[-2.551952362060547,-2.551952362060547,-2.551952362060547],"type":"VEC3"},{"bufferView":45,"componentType":5126,"count":60,"max":[0.9341723918914795,0.9341723918914795,0.9341723918914795],"min":[-0.9341723918914795,-0.9341723918914795,-0.9341723918914795],"type":"VEC3"},{"bufferView":46,"componentType":5126,"count":60,"max":[1,1],"min":[0,0],"type":"VEC2"},{"bufferView":47,"componentType":5123,"count":60,"max":[59],"min":[0],"type":"SCALAR"},{"bufferView":48,"componentType":5126,"count":60,"max":[2.551952362060547,2.551952362060547,2.551952362060547],"min":[-2.551952362060547,-2.551952362060547,-2.551952362060547],"type":"VEC3"},{"bufferView":49,"componentType":5126,"count":60,"max":[0.9341723918914795,0.9341723918914795,0.9341723918914795],"min":[-0.9341723918914795,-0.9341723918914795,-0.9341723918914795],"type":"VEC3"},{"bufferView":50,"componentType":5126,"count":60,"max":[1,1],"min":[0,0],"type":"VEC2"},{"bufferView":51,"componentType":5123,"count":60,"max":[59],"min":[0],"type":"SCALAR"}],"materials":[{"pbrMetallicRoughness":{"metallicFactor":0,"roughnessFactor":1},"alphaMode":"MASK","alphaCutoff":0.05,"doubleSided":true}],"meshes":[{"primitives":[{"mode":4,"attributes":{"POSITION":0,"NORMAL":1,"TEXCOORD_0":2},"indices":3,"material":0}]},{"primitives":[{"mode":4,"attributes":{"POSITION":4,"NORMAL":5,"TEXCOORD_0":6},"indices":7,"material":0}]},{"primitives":[{"mode":4,"attributes":{"POSITION":8,"NORMAL":9,"TEXCOORD_0":10},"indices":11,"material":0}]},{"primitives":[{"mode":4,"attributes":{"POSITION":12,"NORMAL":13,"TEXCOORD_0":14},"indices":15,"material":0}]},{"primitives":[{"mode":4,"attributes":{"POSITION":16,"NORMAL":17,"TEXCOORD_0":18},"indices":19,"material":0}]},{"primitives":[{"mode":4,"attributes":{"POSITION":20,"NORMAL":21,"TEXCOORD_0":22},"indices":23,"material":0}]},{"primitives":[{"mode":4,"attributes":{"POSITION":24,"NORMAL":25,"TEXCOORD_0":26},"indices":27,"material":0}]},{"primitives":[{"mode":4,"attributes":{"POSITION":28,"NORMAL":29,"TEXCOORD_0":30},"indices":31,"material":0}]},{"primitives":[{"mode":4,"attributes":{"POSITION":32,"NORMAL":33,"TEXCOORD_0":34},"indices":35,"material":0}]},{"primitives":[{"mode":4,"attributes":{"POSITION":36,"NORMAL":37,"TEXCOORD_0":38},"indices":39,"material":0}]},{"primitives":[{"mode":4,"attributes":{"POSITION":40,"NORMAL":41,"TEXCOORD_0":42},"indices":43,"material":0}]},{"primitives":[{"mode":4,"attributes":{"POSITION":44,"NORMAL":45,"TEXCOORD_0":46},"indices":47,"material":0}]},{"primitives":[{"mode":4,"attributes":{"POSITION":48,"NORMAL":49,"TEXCOORD_0":50},"indices":51,"material":0}]}]}